<?xml version="1.0" encoding="UTF-8" standalone="no"?>
<!-- Created with Inkscape (http://www.inkscape.org/) -->

<svg
   xmlns:dc="http://purl.org/dc/elements/1.1/"
   xmlns:cc="http://creativecommons.org/ns#"
   xmlns:rdf="http://www.w3.org/1999/02/22-rdf-syntax-ns#"
   xmlns:svg="http://www.w3.org/2000/svg"
   xmlns="http://www.w3.org/2000/svg"
   xmlns:sodipodi="http://sodipodi.sourceforge.net/DTD/sodipodi-0.dtd"
   xmlns:inkscape="http://www.inkscape.org/namespaces/inkscape"
   width="813.29089"
   height="294.86539"
   viewBox="0 0 215.18323 78.016464"
   version="1.1"
   id="svg8"
   inkscape:version="0.92.2 (5c3e80d, 2017-08-06)"
   sodipodi:docname="vertical_color.svg"
   inkscape:export-filename="/home/anxhelo/Desktop/Design/Open Labs Branding/horizontal_white.png"
   inkscape:export-xdpi="96"
   inkscape:export-ydpi="96">
  <defs
     id="defs2" />
  <sodipodi:namedview
     id="base"
     pagecolor="#ffffff"
     bordercolor="#666666"
     borderopacity="1.0"
     inkscape:pageopacity="0.0"
     inkscape:pageshadow="2"
     inkscape:zoom="0.35753087"
     inkscape:cx="210.70764"
     inkscape:cy="265.17226"
     inkscape:document-units="mm"
     inkscape:current-layer="g847"
     inkscape:document-rotation="0"
     showgrid="false"
     borderlayer="true"
     inkscape:showpageshadow="false"
     units="px"
     inkscape:pagecheckerboard="false"
     showguides="true"
     inkscape:window-width="1366"
     inkscape:window-height="715"
     inkscape:window-x="0"
     inkscape:window-y="0"
     inkscape:window-maximized="1"
     fit-margin-top="0"
     fit-margin-left="0"
     fit-margin-right="0"
     fit-margin-bottom="0">
    <inkscape:grid
       type="xygrid"
       id="grid10"
       originx="-163.51816"
       originy="-77.508554" />
  </sodipodi:namedview>
  <metadata
     id="metadata5">
    <rdf:RDF>
      <cc:Work
         rdf:about="">
        <dc:format>image/svg+xml</dc:format>
        <dc:type
           rdf:resource="http://purl.org/dc/dcmitype/StillImage" />
        <dc:title></dc:title>
      </cc:Work>
    </rdf:RDF>
  </metadata>
  <g
     inkscape:label="Layer 1"
     inkscape:groupmode="layer"
     id="layer1"
     transform="translate(-163.51813,-141.47498)">
    <g
       id="g847"
       transform="matrix(6.5901191,0,0,6.5901191,-1228.2686,-846.98072)">
      <g
         id="g975"
         transform="matrix(10.484904,0,0,10.484904,-1763.1714,-1462.6078)">
        <path
           inkscape:connector-curvature="0"
           id="path8455-4"
           style="fill:#59595c;fill-opacity:1;fill-rule:nonzero;stroke:none;stroke-width:0.02219145"
           d="m 190.02648,154.0219 c 0,-0.014 -0.003,-0.0281 -0.009,-0.0421 -0.006,-0.014 -0.0137,-0.0263 -0.0239,-0.0368 -0.0102,-0.0105 -0.0223,-0.0191 -0.0363,-0.0258 -0.014,-0.007 -0.0293,-0.01 -0.0459,-0.01 -0.0166,0 -0.0319,0.003 -0.0459,0.01 -0.014,0.007 -0.0262,0.0153 -0.0363,0.0258 -0.0102,0.0105 -0.0182,0.0228 -0.0239,0.0368 -0.006,0.014 -0.009,0.0281 -0.009,0.0421 v 0.0393 c 0,0.0147 0.003,0.0289 0.009,0.0426 0.006,0.0137 0.0137,0.0258 0.0239,0.0363 0.0102,0.0105 0.0223,0.0191 0.0363,0.0258 0.014,0.007 0.0293,0.0101 0.0459,0.0101 0.0166,0 0.0319,-0.003 0.0459,-0.0101 0.014,-0.007 0.0261,-0.0153 0.0363,-0.0258 0.0102,-0.0105 0.0182,-0.0226 0.0239,-0.0363 0.006,-0.0137 0.009,-0.0279 0.009,-0.0426 z m -0.11477,-0.21998 c 0.0312,0 0.0607,0.006 0.0885,0.0182 0.0277,0.0121 0.0521,0.0287 0.0732,0.0498 0.021,0.021 0.0376,0.0454 0.0497,0.0732 0.0121,0.0277 0.0182,0.0572 0.0182,0.0885 v 0.0202 c 0,-0.0285 -0.006,0.0607 -0.0182,0.0885 -0.0121,0.0277 -0.0287,0.0521 -0.0497,0.0732 -0.0211,0.021 -0.0455,0.0376 -0.0732,0.0497 -0.0277,0.0121 -0.0572,0.0182 -0.0885,0.0182 -0.0312,0 -0.0607,-0.006 -0.0885,-0.0182 -0.0277,-0.0121 -0.0521,-0.0287 -0.0732,-0.0497 -0.021,-0.021 -0.0376,-0.0454 -0.0497,-0.0732 -0.0121,-0.0277 -0.0182,-0.0572 -0.0182,-0.0885 v -0.0202 c 0,-0.0312 0.006,-0.0607 0.0182,-0.0885 0.0121,-0.0277 0.0287,-0.0521 0.0497,-0.0732 0.021,-0.0211 0.0454,-0.0376 0.0732,-0.0498 0.0277,-0.0121 0.0572,-0.0182 0.0885,-0.0182" />
        <path
           inkscape:connector-curvature="0"
           id="path8459-8"
           style="fill:#59595c;fill-opacity:1;fill-rule:nonzero;stroke:none;stroke-width:0.02219145"
           d="m 190.75761,153.92733 c -0.0147,0 -0.0263,0.004 -0.0349,0.0129 -0.009,0.009 -0.0129,0.0203 -0.0129,0.0349 v 0.0287 h 0.15303 v -0.0287 c 0,-0.0147 -0.004,-0.0263 -0.0129,-0.0349 -0.009,-0.009 -0.0202,-0.0129 -0.0349,-0.0129 z m -0.01,0.35387 c -0.0217,0 -0.0418,-0.004 -0.0602,-0.012 -0.0185,-0.008 -0.0346,-0.0188 -0.0483,-0.0325 -0.0137,-0.0137 -0.0245,-0.0298 -0.0325,-0.0483 -0.008,-0.0185 -0.012,-0.0385 -0.012,-0.0602 v -0.15301 c 0,-0.0217 0.004,-0.0418 0.012,-0.0603 0.008,-0.0185 0.0188,-0.0346 0.0325,-0.0483 0.0137,-0.0137 0.0298,-0.0245 0.0483,-0.0325 0.0185,-0.008 0.0386,-0.0119 0.0602,-0.0119 h 0.0765 c 0.0217,0 0.0418,0.004 0.0602,0.0119 0.0185,0.008 0.0346,0.0188 0.0483,0.0325 0.0137,0.0137 0.0245,0.0298 0.0325,0.0483 0.008,0.0185 0.012,0.0386 0.012,0.0603 v 0.12431 h -0.2678 v 0.0287 c 0,0.0147 0.004,0.0263 0.0129,0.0349 0.009,0.009 0.0202,0.0129 0.0349,0.0129 h 0.0765 c 0.0121,0 0.0225,-0.002 0.0311,-0.005 0.009,-0.003 0.0158,-0.007 0.0215,-0.011 0.006,-0.004 0.0105,-0.008 0.0144,-0.0124 0.004,-0.004 0.007,-0.007 0.01,-0.01 h 0.0191 l 0.0478,0.0478 v 0.0191 l -0.0383,0.0383 c -0.01,0.01 -0.0247,0.0183 -0.0454,0.0263 -0.0207,0.008 -0.0407,0.012 -0.0598,0.012 z" />
        <path
           inkscape:connector-curvature="0"
           id="path8463-5"
           style="fill:#59595c;fill-opacity:1;fill-rule:nonzero;stroke:none;stroke-width:0.02219145"
           d="m 191.26666,153.82213 c 0.0217,0 0.0418,0.004 0.0602,0.0119 0.0185,0.008 0.0346,0.0188 0.0483,0.0325 0.0137,0.0137 0.0245,0.0298 0.0325,0.0483 0.008,0.0185 0.012,0.0386 0.012,0.0603 v 0.2965 l -0.01,0.01 h -0.0956 l -0.01,-0.01 v -0.2965 c 0,-0.0147 -0.004,-0.0263 -0.0134,-0.0349 -0.009,-0.009 -0.0208,-0.0129 -0.0354,-0.0129 h -0.0373 c -0.0191,0 -0.0367,0.007 -0.0526,0.0201 -0.016,0.0134 -0.0239,0.0322 -0.0239,0.0564 v 0.26781 l -0.01,0.01 h -0.0957 l -0.01,-0.01 v -0.43999 l 0.01,-0.01 h 0.0191 l 0.0392,0.0411 c 0.0153,-0.0128 0.032,-0.0228 0.0502,-0.0301 0.0182,-0.007 0.0394,-0.011 0.0636,-0.011 z" />
        <path
           inkscape:connector-curvature="0"
           id="path8467-3"
           style="fill:#59595c;fill-opacity:1;fill-rule:nonzero;stroke:none;stroke-width:0.02219145"
           d="m 190.15312,154.71353 c -0.005,0 -0.0113,7.8e-4 -0.0177,0.002 -0.007,0.002 -0.0126,0.004 -0.0183,0.007 -0.006,0.003 -0.0105,0.008 -0.0143,0.0143 -0.004,0.006 -0.006,0.0134 -0.006,0.0217 0,0.008 0.002,0.0156 0.006,0.0217 0.004,0.006 0.009,0.0109 0.0143,0.0143 0.006,0.003 0.0118,0.006 0.0183,0.007 0.006,0.002 0.0124,0.002 0.0177,0.002 h 0.0584 c 0.0168,0 0.0305,-0.004 0.0412,-0.0109 0.0107,-0.007 0.0189,-0.016 0.0246,-0.0263 0.006,-0.0103 0.01,-0.0204 0.0114,-0.0303 0.002,-0.01 0.003,-0.0179 0.003,-0.024 z m 0.0927,-0.33185 c 0.0259,0 0.05,0.005 0.0721,0.0143 0.0221,0.01 0.0414,0.0225 0.0578,0.0389 0.0164,0.0164 0.0294,0.0357 0.0389,0.0578 0.01,0.0221 0.0143,0.0462 0.0143,0.0721 v 0.35475 l -0.0115,0.0114 h -0.0229 l -0.0458,-0.0458 c -0.0199,0.0153 -0.0405,0.0267 -0.0618,0.0343 -0.0213,0.008 -0.0465,0.0114 -0.0755,0.0114 h -0.0687 c -0.0229,0 -0.0446,-0.004 -0.0652,-0.0126 -0.0206,-0.008 -0.0389,-0.02 -0.0549,-0.0349 -0.016,-0.0149 -0.0286,-0.0328 -0.0378,-0.0538 -0.009,-0.021 -0.0137,-0.0445 -0.0137,-0.0704 0,-0.0259 0.005,-0.0488 0.0137,-0.0687 0.009,-0.0198 0.0218,-0.0366 0.0378,-0.0504 0.016,-0.0138 0.0343,-0.024 0.0549,-0.0309 0.0206,-0.007 0.0423,-0.0103 0.0652,-0.0103 h 0.14878 v -0.0343 c 0,-0.0175 -0.005,-0.0315 -0.0154,-0.0418 -0.0103,-0.0103 -0.0242,-0.0154 -0.0418,-0.0154 h -0.0687 c -0.0145,0 -0.0269,0.002 -0.0372,0.006 -0.0103,0.004 -0.0189,0.008 -0.0257,0.0132 -0.007,0.005 -0.0126,0.01 -0.0172,0.0149 -0.005,0.005 -0.008,0.009 -0.0114,0.012 h -0.0229 l -0.0572,-0.0572 v -0.0229 l 0.0458,-0.0458 c 0.0114,-0.0114 0.0296,-0.0219 0.0543,-0.0315 0.0248,-0.01 0.0486,-0.0143 0.0715,-0.0143 z" />
        <path
           inkscape:connector-curvature="0"
           id="path8471-1"
           style="fill:#59595c;fill-opacity:1;fill-rule:nonzero;stroke:none;stroke-width:0.02219145"
           d="m 191.24395,154.38168 c 0.0229,0 0.0467,0.005 0.0715,0.0143 0.0248,0.01 0.0429,0.02 0.0543,0.0315 l 0.0458,0.0458 v 0.0229 l -0.0687,0.0572 h -0.0229 c -0.003,-0.003 -0.007,-0.007 -0.0109,-0.012 -0.004,-0.005 -0.01,-0.01 -0.016,-0.0149 -0.007,-0.005 -0.0141,-0.009 -0.0229,-0.0132 -0.009,-0.004 -0.0189,-0.006 -0.0303,-0.006 h -0.0801 c -0.0114,0 -0.02,0.004 -0.0257,0.0126 -0.006,0.008 -0.009,0.0156 -0.009,0.0217 0,0.0153 0.007,0.0262 0.0212,0.0326 0.0141,0.006 0.0318,0.012 0.0532,0.0166 0.0213,0.005 0.0442,0.009 0.0687,0.0137 0.0244,0.005 0.0473,0.013 0.0687,0.0252 0.0214,0.0122 0.0391,0.0292 0.0532,0.0509 0.0141,0.0217 0.0212,0.0517 0.0212,0.0898 0,0.0458 -0.0143,0.084 -0.0429,0.11446 -0.0286,0.0305 -0.0715,0.0458 -0.12876,0.0458 h -0.0915 c -0.0229,0 -0.0467,-0.005 -0.0715,-0.0143 -0.0248,-0.01 -0.0429,-0.02 -0.0544,-0.0315 l -0.0458,-0.0458 v -0.0229 l 0.0687,-0.0572 h 0.0229 c 0.003,0.003 0.007,0.007 0.0109,0.012 0.004,0.005 0.01,0.01 0.016,0.0149 0.006,0.005 0.0141,0.009 0.0229,0.0132 0.009,0.004 0.0189,0.006 0.0303,0.006 h 0.0915 c 0.0115,0 0.02,-0.004 0.0258,-0.0126 0.006,-0.008 0.009,-0.0156 0.009,-0.0218 0,-0.0153 -0.007,-0.0261 -0.0212,-0.0326 -0.0141,-0.006 -0.0319,-0.012 -0.0532,-0.0166 -0.0214,-0.005 -0.0443,-0.009 -0.0687,-0.0137 -0.0244,-0.005 -0.0473,-0.013 -0.0687,-0.0252 -0.0214,-0.0122 -0.0391,-0.0292 -0.0532,-0.0509 -0.0141,-0.0217 -0.0212,-0.0517 -0.0212,-0.0899 0,-0.0458 0.0141,-0.0839 0.0423,-0.11442 0.0282,-0.0305 0.071,-0.0457 0.12818,-0.0457 z" />
        <path
           inkscape:connector-curvature="0"
           id="path8475-6"
           style="fill:#59595c;fill-opacity:1;fill-rule:nonzero;stroke:none;stroke-width:0.02219145"
           d="m 189.79333,154.91663 c -0.0222,-0.01 -0.0414,-0.0225 -0.0579,-0.039 -0.0164,-0.0164 -0.0294,-0.0357 -0.039,-0.0579 -0.01,-0.0221 -0.0143,-0.0462 -0.0143,-0.0722 v -0.36146 l 0.0687,-0.0344 h 0.0573 l 0.0115,0.0114 v 0.38438 c 0,0.0176 0.005,0.0315 0.0155,0.0418 0.0103,0.0103 0.0242,0.0155 0.0418,0.0155 h 0.0458 l 0.0115,0.0115 v 0.10312 l -0.0115,0.0115 h -0.0573 c -0.026,0 -0.05,-0.005 -0.0722,-0.0143" />
        <path
           inkscape:connector-curvature="0"
           id="path8479-2"
           style="fill:#59595c;fill-opacity:1;fill-rule:nonzero;stroke:none;stroke-width:0.02219145"
           d="m 190.442,154.06096 c 0,0.0147 -0.004,0.0263 -0.0129,0.0349 -0.009,0.009 -0.0202,0.0129 -0.0349,0.0129 h -0.0287 c -0.0191,0 -0.0367,-0.007 -0.0526,-0.0201 -0.016,-0.0134 -0.0239,-0.0322 -0.0239,-0.0564 v -0.0284 c 0,-0.0243 0.008,-0.0431 0.0239,-0.0564 0.0159,-0.0134 0.0335,-0.0201 0.0526,-0.0201 h 0.0277 c 0.0147,0 0.0265,0.004 0.0354,0.0129 0.009,0.009 0.0134,0.0203 0.0134,0.0349 z m 0.10281,-0.14609 c -0.008,-0.0185 -0.0188,-0.0346 -0.0325,-0.0483 -0.0137,-0.0137 -0.0298,-0.0246 -0.0483,-0.0326 -0.0185,-0.008 -0.0386,-0.0119 -0.0602,-0.0119 h -0.0478 c -0.0242,0 -0.0455,0.004 -0.0636,0.011 -0.0182,0.007 -0.0349,0.0174 -0.0502,0.0302 l -0.0392,-0.0411 h -0.0191 l -0.01,0.01 v 0.44476 l 0.01,0.01 h 0.0956 l 0.01,-0.01 v -0.0911 c 0.005,0.005 0.0139,0.0112 0.0263,0.0182 0.0125,0.007 0.026,0.0105 0.0407,0.0105 h 0.0478 c 0.0217,0 0.0418,-0.004 0.0602,-0.012 0.0185,-0.008 0.0346,-0.0188 0.0483,-0.0325 0.0137,-0.0137 0.0246,-0.0298 0.0325,-0.0483 0.008,-0.0185 0.012,-0.0386 0.012,-0.0602 v -0.0858 c 0,-0.0217 -0.004,-0.0418 -0.012,-0.0603" />
        <path
           inkscape:connector-curvature="0"
           id="path8483-6"
           style="fill:#59595c;fill-opacity:1;fill-rule:nonzero;stroke:none;stroke-width:0.02219145"
           d="m 190.82054,154.74786 c 0,0.0176 -0.005,0.0315 -0.016,0.0418 -0.0107,0.0103 -0.0248,0.0154 -0.0423,0.0154 h -0.0332 c -0.0229,0 -0.0439,-0.008 -0.063,-0.024 -0.0191,-0.016 -0.0286,-0.0385 -0.0286,-0.0675 v -0.0191 c 0,-0.029 0.01,-0.0515 0.0286,-0.0675 0.0191,-0.016 0.0401,-0.024 0.063,-0.024 h 0.0332 c 0.0175,0 0.0316,0.005 0.0423,0.0154 0.0107,0.0103 0.016,0.0242 0.016,0.0418 z m 0.12303,-0.15984 c -0.01,-0.0221 -0.0225,-0.0414 -0.0389,-0.0578 -0.0164,-0.0164 -0.0357,-0.0294 -0.0578,-0.0389 -0.0221,-0.01 -0.0462,-0.0143 -0.0721,-0.0143 h -0.0572 c -0.0176,0 -0.0338,0.004 -0.0487,0.0126 -0.0149,0.008 -0.0254,0.0156 -0.0315,0.0217 v -0.14812 l -0.0115,-0.0114 h -0.11441 l -0.0115,0.0114 v 0.55631 l 0.0115,0.0114 h 0.0229 l 0.0469,-0.0492 c 0.0183,0.0153 0.0383,0.0273 0.0601,0.0361 0.0217,0.009 0.0471,0.0132 0.0761,0.0132 h 0.0572 c 0.0259,0 0.05,-0.005 0.0721,-0.0143 0.0221,-0.01 0.0414,-0.0225 0.0578,-0.0389 0.0164,-0.0164 0.0294,-0.0356 0.0389,-0.0578 0.01,-0.0221 0.0143,-0.0461 0.0143,-0.0721 v -0.0877 c 0,-0.0259 -0.005,-0.05 -0.0143,-0.0721" />
        <path
           inkscape:connector-curvature="0"
           id="path8487-5"
           style="fill:#2bbbb1;fill-opacity:1;fill-rule:nonzero;stroke:none;stroke-width:0.02219145"
           d="m 189.40995,154.10295 -0.17121,0.2598 0.0859,0.13028 h -0.23636 l 0.10059,0.14935 h -0.23469 l 0.10057,0.14935 h -0.23903 l 0.10058,-0.14935 h -0.23468 l 0.10057,-0.14935 h -0.23634 l 0.0859,-0.13028 -0.0859,-0.13031 h 0.23636 l -0.10057,-0.14935 h 0.23468 l -0.10058,-0.14935 h 0.23903 l -0.10057,0.14935 h 0.15611 l 0.18779,-0.27883 h -0.72566 l 0.10057,0.14934 h -0.2347 l 0.10057,0.14935 h -0.23345 l 0.17121,0.2598 -0.17119,0.25977 h 0.23343 l -0.10057,0.14935 h 0.2347 l -0.10057,0.14935 h 0.72566 l -0.10057,-0.14935 h 0.23469 l -0.10059,-0.14935 h 0.23345 l -0.1712,-0.25977 0.1712,-0.2598 z" />
      </g>
    </g>
  </g>
</svg>
