<?xml version="1.0" encoding="UTF-8" standalone="no"?>
<!-- Created with Inkscape (http://www.inkscape.org/) -->

<svg
   xmlns:dc="http://purl.org/dc/elements/1.1/"
   xmlns:cc="http://creativecommons.org/ns#"
   xmlns:rdf="http://www.w3.org/1999/02/22-rdf-syntax-ns#"
   xmlns:svg="http://www.w3.org/2000/svg"
   xmlns="http://www.w3.org/2000/svg"
   xmlns:sodipodi="http://sodipodi.sourceforge.net/DTD/sodipodi-0.dtd"
   xmlns:inkscape="http://www.inkscape.org/namespaces/inkscape"
   width="883.67682"
   height="183.77278"
   viewBox="0 0 233.80617 48.623213"
   version="1.1"
   id="svg8"
   inkscape:version="0.92.2 (5c3e80d, 2017-08-06)"
   sodipodi:docname="horizontal_color.svg">
  <defs
     id="defs2" />
  <sodipodi:namedview
     id="base"
     pagecolor="#ffffff"
     bordercolor="#666666"
     borderopacity="1.0"
     inkscape:pageopacity="0.0"
     inkscape:pageshadow="2"
     inkscape:zoom="0.35753087"
     inkscape:cx="188.11165"
     inkscape:cy="38.462866"
     inkscape:document-units="mm"
     inkscape:current-layer="layer1"
     inkscape:document-rotation="0"
     showgrid="false"
     borderlayer="true"
     inkscape:showpageshadow="false"
     units="px"
     inkscape:pagecheckerboard="false"
     showguides="true"
     inkscape:window-width="1366"
     inkscape:window-height="715"
     inkscape:window-x="0"
     inkscape:window-y="0"
     inkscape:window-maximized="1"
     fit-margin-top="0"
     fit-margin-left="0"
     fit-margin-right="0"
     fit-margin-bottom="0">
    <inkscape:grid
       type="xygrid"
       id="grid10"
       originx="-156.90782"
       originy="-89.011195" />
  </sodipodi:namedview>
  <metadata
     id="metadata5">
    <rdf:RDF>
      <cc:Work
         rdf:about="">
        <dc:format>image/svg+xml</dc:format>
        <dc:type
           rdf:resource="http://purl.org/dc/dcmitype/StillImage" />
        <dc:title></dc:title>
      </cc:Work>
    </rdf:RDF>
  </metadata>
  <g
     inkscape:label="Layer 1"
     inkscape:groupmode="layer"
     id="layer1"
     transform="translate(-156.90781,-159.36559)">
    <g
       id="g847"
       transform="matrix(6.5901191,0,0,6.5901191,-1228.2686,-846.98072)">
      <path
         d="m 222.31958,156.16058 c 0,-0.10424 -0.0213,-0.2088 -0.0641,-0.3132 -0.0428,-0.1044 -0.10209,-0.19592 -0.17807,-0.27405 -0.076,-0.0785 -0.16618,-0.14256 -0.27058,-0.19245 -0.10424,-0.0499 -0.21822,-0.0747 -0.34162,-0.0747 -0.12339,0 -0.23737,0.0248 -0.34177,0.0747 -0.1044,0.0499 -0.19476,0.11398 -0.27058,0.19245 -0.076,0.0781 -0.13529,0.16965 -0.17791,0.27405 -0.0428,0.1044 -0.0641,0.20896 -0.0641,0.3132 v 0.29271 c 0,0.10919 0.0213,0.21492 0.0641,0.31684 0.0426,0.10208 0.10192,0.19211 0.17791,0.27058 0.0758,0.0781 0.16618,0.14239 0.27058,0.19211 0.1044,0.0499 0.21838,0.0748 0.34177,0.0748 0.1234,0 0.23738,-0.0249 0.34162,-0.0748 0.1044,-0.0497 0.19459,-0.11398 0.27058,-0.19211 0.076,-0.0785 0.13529,-0.1685 0.17807,-0.27058 0.0428,-0.10192 0.0641,-0.20765 0.0641,-0.31684 z m -0.85436,-1.63753 c 0.23242,0 0.45213,0.0451 0.65845,0.13529 0.20648,0.0902 0.38803,0.21359 0.54463,0.37036 0.15676,0.1566 0.28016,0.33814 0.37035,0.54463 0.09,0.20632 0.13529,0.42602 0.13529,0.65844 v 0.15033 c 0,-0.21227 -0.0453,0.45212 -0.13529,0.65861 -0.0902,0.20649 -0.21359,0.38803 -0.37035,0.54463 -0.1566,0.1566 -0.33815,0.28 -0.54463,0.37019 -0.20632,0.0902 -0.42603,0.13529 -0.65845,0.13529 -0.23259,0 -0.45212,-0.0451 -0.65861,-0.13529 -0.20649,-0.0902 -0.38803,-0.21359 -0.54463,-0.37019 -0.1566,-0.1566 -0.28016,-0.33814 -0.37019,-0.54463 -0.0904,-0.20649 -0.13529,-0.42603 -0.13529,-0.65861 v -0.15033 c 0,-0.23242 0.0449,-0.45212 0.13529,-0.65844 0.09,-0.20649 0.21359,-0.38803 0.37019,-0.54463 0.1566,-0.15677 0.33814,-0.28016 0.54463,-0.37036 0.20649,-0.0902 0.42602,-0.13529 0.65861,-0.13529"
         style="fill:#59595c;fill-opacity:1;fill-rule:nonzero;stroke:none;stroke-width:0.16518977"
         id="path8419-3"
         inkscape:connector-curvature="0" />
      <path
         d="m 227.76199,155.4566 c -0.10919,0 -0.19575,0.0319 -0.25984,0.096 -0.0641,0.0641 -0.0961,0.15082 -0.0961,0.26001 v 0.21359 h 1.13915 v -0.21359 c 0,-0.10919 -0.032,-0.19591 -0.0961,-0.26001 -0.0641,-0.0641 -0.15066,-0.096 -0.25985,-0.096 z m -0.0712,2.63412 c -0.16139,0 -0.31088,-0.0296 -0.44849,-0.089 -0.13777,-0.0593 -0.25753,-0.13975 -0.35962,-0.242 -0.10208,-0.10193 -0.1827,-0.22169 -0.242,-0.35962 -0.0595,-0.13744 -0.089,-0.28694 -0.089,-0.44849 v -1.13899 c 0,-0.16122 0.0296,-0.31105 0.089,-0.44865 0.0593,-0.1376 0.13992,-0.25753 0.242,-0.35945 0.10209,-0.10193 0.22185,-0.1827 0.35962,-0.24217 0.13761,-0.0593 0.2871,-0.0889 0.44849,-0.0889 h 0.56958 c 0.16139,0 0.31088,0.0296 0.44849,0.0889 0.1376,0.0595 0.25753,0.14024 0.35961,0.24217 0.10209,0.10192 0.1827,0.22185 0.24201,0.35945 0.0593,0.1376 0.089,0.28743 0.089,0.44865 v 0.9254 h -1.99351 v 0.21359 c 0,0.10935 0.032,0.19591 0.0961,0.26001 0.0641,0.0639 0.15065,0.096 0.25984,0.096 h 0.56957 c 0.0902,0 0.16734,-0.0117 0.23144,-0.0355 0.0641,-0.0238 0.11745,-0.051 0.16006,-0.0819 0.0428,-0.0309 0.0783,-0.0616 0.10688,-0.0925 0.0284,-0.0309 0.0522,-0.0558 0.0712,-0.0747 h 0.1424 l 0.35598,0.35598 v 0.14223 l -0.28479,0.28495 c -0.0712,0.071 -0.18402,0.13628 -0.33814,0.19559 -0.15429,0.0595 -0.30263,0.089 -0.44502,0.089 z"
         style="fill:#59595c;fill-opacity:1;fill-rule:nonzero;stroke:none;stroke-width:0.16518977"
         id="path8423-0"
         inkscape:connector-curvature="0" />
      <path
         d="m 231.55126,154.67345 c 0.16139,0 0.31089,0.0296 0.44849,0.0889 0.13761,0.0595 0.25753,0.14025 0.35962,0.24217 0.10209,0.10193 0.1827,0.22185 0.242,0.35946 0.0593,0.1376 0.089,0.28726 0.089,0.44865 v 2.2071 l -0.0712,0.071 h -0.71196 l -0.0712,-0.071 v -2.2071 c 0,-0.10919 -0.0332,-0.19591 -0.0996,-0.26001 -0.0666,-0.0641 -0.15446,-0.096 -0.26348,-0.096 h -0.27769 c -0.14239,0 -0.27289,0.0499 -0.3915,0.1495 -0.11877,0.0996 -0.17807,0.23969 -0.17807,0.42008 v 1.99351 l -0.0712,0.071 h -0.71197 l -0.0712,-0.071 v -3.27522 l 0.0712,-0.071 h 0.1424 l 0.29189,0.3061 c 0.11398,-0.095 0.23853,-0.16982 0.37382,-0.22433 0.13529,-0.0545 0.29305,-0.0818 0.47343,-0.0818 z"
         style="fill:#59595c;fill-opacity:1;fill-rule:nonzero;stroke:none;stroke-width:0.16518977"
         id="path8427-0"
         inkscape:connector-curvature="0" />
      <path
         d="m 237.81371,156.73805 c -0.0332,0 -0.07,0.005 -0.11035,0.0144 -0.0405,0.009 -0.0783,0.0248 -0.11382,0.0461 -0.0357,0.0215 -0.0654,0.0512 -0.089,0.089 -0.0238,0.038 -0.0357,0.0833 -0.0357,0.13545 0,0.052 0.0119,0.0973 0.0357,0.13513 0.0236,0.038 0.0534,0.0676 0.089,0.089 0.0355,0.0213 0.0733,0.0368 0.11382,0.0461 0.0403,0.01 0.0771,0.0144 0.11035,0.0144 h 0.36308 c 0.1044,0 0.18981,-0.0225 0.25638,-0.0676 0.0664,-0.0451 0.11745,-0.0998 0.15313,-0.16387 0.0355,-0.0641 0.0593,-0.12687 0.071,-0.18865 0.0119,-0.0616 0.0178,-0.1115 0.0178,-0.14949 z m 0.57667,-2.06455 c 0.16139,0 0.31089,0.0296 0.44849,0.0887 0.13777,0.0596 0.25753,0.14025 0.35962,0.24234 0.10209,0.10192 0.1827,0.22185 0.242,0.35929 0.0593,0.13776 0.089,0.28743 0.089,0.44865 v 2.20727 l -0.0712,0.071 h -0.14239 l -0.28479,-0.28479 c -0.12339,0.0951 -0.25158,0.16618 -0.38439,0.21375 -0.13298,0.0474 -0.28958,0.071 -0.46997,0.071 h -0.42718 c -0.14239,0 -0.27768,-0.0261 -0.40587,-0.0783 -0.12802,-0.052 -0.242,-0.12455 -0.34161,-0.21722 -0.0998,-0.0925 -0.17808,-0.20401 -0.23507,-0.33451 -0.057,-0.1305 -0.0854,-0.27653 -0.0854,-0.43775 0,-0.16156 0.0284,-0.30395 0.0854,-0.42735 0.057,-0.1234 0.13529,-0.22779 0.23507,-0.3132 0.0996,-0.0856 0.21359,-0.14949 0.34161,-0.19244 0.12819,-0.0426 0.26348,-0.0639 0.40587,-0.0639 h 0.92556 v -0.2136 c 0,-0.10902 -0.032,-0.19574 -0.0961,-0.25984 -0.0641,-0.0641 -0.15065,-0.096 -0.25984,-0.096 H 237.892 c -0.0902,0 -0.16717,0.0117 -0.23143,0.0355 -0.0641,0.0238 -0.11744,0.0509 -0.16006,0.0818 -0.0428,0.0311 -0.0783,0.0619 -0.10688,0.0927 -0.0284,0.0309 -0.0522,0.0557 -0.0712,0.0747 h -0.14239 l -0.35599,-0.35598 v -0.14223 l 0.28479,-0.28495 c 0.0712,-0.0712 0.18386,-0.13629 0.33814,-0.19592 0.15429,-0.0591 0.30263,-0.0887 0.44502,-0.0887 z"
         style="fill:#59595c;fill-opacity:1;fill-rule:nonzero;stroke:none;stroke-width:0.16518977"
         id="path8431-8"
         inkscape:connector-curvature="0" />
      <path
         d="m 244.60023,154.67345 c 0.1424,0 0.29073,0.0296 0.44502,0.0889 0.15413,0.0595 0.26695,0.12456 0.33815,0.19575 l 0.28478,0.28496 v 0.14239 l -0.42718,0.35582 h -0.14239 c -0.019,-0.0188 -0.0416,-0.0438 -0.0676,-0.0747 -0.0263,-0.0307 -0.0595,-0.0616 -0.0996,-0.0925 -0.0405,-0.0309 -0.0879,-0.0582 -0.14256,-0.0819 -0.0547,-0.0238 -0.11745,-0.0355 -0.18865,-0.0355 h -0.49838 c -0.0712,0 -0.12455,0.0261 -0.16023,0.0781 -0.0355,0.0524 -0.0534,0.0975 -0.0534,0.13529 0,0.095 0.0438,0.16271 0.13166,0.20302 0.0879,0.0403 0.19823,0.0747 0.3312,0.10324 0.13282,0.0284 0.27521,0.057 0.42702,0.0854 0.15197,0.0284 0.29437,0.0808 0.42735,0.1566 0.13281,0.076 0.24316,0.18155 0.33104,0.31684 0.0877,0.13529 0.13165,0.32162 0.13165,0.55883 0,0.28495 -0.089,0.52217 -0.26694,0.71214 -0.17808,0.1898 -0.44502,0.28462 -0.80101,0.28462 h -0.56957 c -0.1424,0 -0.29074,-0.0296 -0.44503,-0.089 -0.15428,-0.0593 -0.26694,-0.12456 -0.33814,-0.19559 l -0.28479,-0.28493 V 157.379 l 0.42719,-0.35598 h 0.14239 c 0.019,0.0188 0.0415,0.0438 0.0676,0.0747 0.0261,0.0309 0.0595,0.0616 0.0998,0.0925 0.0403,0.0309 0.0879,0.0581 0.14239,0.0819 0.0545,0.0238 0.11745,0.0355 0.18865,0.0355 h 0.56957 c 0.0712,0 0.12472,-0.0261 0.16024,-0.0781 0.0357,-0.0522 0.0534,-0.0975 0.0534,-0.13546 0,-0.0948 -0.0439,-0.16238 -0.13166,-0.20285 -0.0879,-0.0403 -0.19823,-0.0747 -0.33104,-0.10324 -0.13298,-0.0284 -0.27537,-0.057 -0.42718,-0.0854 -0.15214,-0.0286 -0.29437,-0.0808 -0.42735,-0.1566 -0.13281,-0.0758 -0.24316,-0.18155 -0.33104,-0.317 -0.0877,-0.13513 -0.13165,-0.3213 -0.13165,-0.55884 0,-0.28462 0.0877,-0.522 0.26347,-0.71197 0.1756,-0.1898 0.44139,-0.28462 0.79738,-0.28462 z"
         style="fill:#59595c;fill-opacity:1;fill-rule:nonzero;stroke:none;stroke-width:0.16518977"
         id="path8435-9"
         inkscape:connector-curvature="0" />
      <path
         d="m 235.57529,158.00163 c -0.13794,-0.0593 -0.25787,-0.14008 -0.36012,-0.24233 -0.10225,-0.10225 -0.18303,-0.22218 -0.24233,-0.36011 -0.0595,-0.13777 -0.0892,-0.2876 -0.0892,-0.44916 v -2.24872 l 0.42784,-0.21392 h 0.35648 l 0.0712,0.0714 v 2.39128 c 0,0.10936 0.0322,0.19608 0.0963,0.26018 0.0643,0.0643 0.15082,0.0963 0.26034,0.0963 h 0.28512 l 0.0714,0.0714 v 0.64159 l -0.0714,0.0714 h -0.35648 c -0.16156,0 -0.31139,-0.0297 -0.44915,-0.0892"
         style="fill:#59595c;fill-opacity:1;fill-rule:nonzero;stroke:none;stroke-width:0.16518977"
         id="path8439-7"
         inkscape:connector-curvature="0" />
      <path
         d="m 225.41263,156.45128 c 0,0.10935 -0.032,0.19591 -0.0961,0.26001 -0.0641,0.0639 -0.15065,0.096 -0.25984,0.096 h -0.21359 c -0.1424,0 -0.2729,-0.0499 -0.3915,-0.1495 -0.11878,-0.0998 -0.17808,-0.23969 -0.17808,-0.42008 v -0.21144 c 0,-0.18055 0.0593,-0.32047 0.17808,-0.42008 0.1186,-0.0998 0.2491,-0.1495 0.3915,-0.1495 h 0.20648 c 0.10919,0 0.19691,0.0319 0.26348,0.096 0.0664,0.0641 0.0996,0.15082 0.0996,0.25985 z m 0.76532,-1.08745 c -0.0593,-0.13743 -0.14008,-0.25736 -0.242,-0.35928 -0.10209,-0.10209 -0.22202,-0.18287 -0.35962,-0.24234 -0.1376,-0.0591 -0.28726,-0.0887 -0.44849,-0.0887 h -0.35598 c -0.18039,0 -0.33831,0.0273 -0.47344,0.0816 -0.13529,0.0547 -0.25984,0.12951 -0.37382,0.2245 l -0.29189,-0.3061 h -0.14239 l -0.0712,0.071 v 3.31073 l 0.0712,0.071 h 0.71196 l 0.0712,-0.071 v -0.67843 c 0.0378,0.038 0.10325,0.0833 0.19575,0.13529 0.0927,0.0522 0.19344,0.0783 0.30263,0.0783 h 0.35598 c 0.16123,0 0.31089,-0.0296 0.44849,-0.089 0.13761,-0.0593 0.25754,-0.13992 0.35962,-0.242 0.10192,-0.10209 0.1827,-0.22169 0.24201,-0.35962 0.0593,-0.13761 0.089,-0.2871 0.089,-0.44849 v -0.63879 c 0,-0.16123 -0.0297,-0.31089 -0.089,-0.44866"
         style="fill:#59595c;fill-opacity:1;fill-rule:nonzero;stroke:none;stroke-width:0.16518977"
         id="path8443-1"
         inkscape:connector-curvature="0" />
      <path
         d="m 241.96598,156.95165 c 0,0.10936 -0.0332,0.19592 -0.0996,0.26001 -0.0666,0.0639 -0.15428,0.096 -0.26348,0.096 h -0.20648 c -0.1424,0 -0.2729,-0.0499 -0.3915,-0.1495 -0.11877,-0.0998 -0.17808,-0.23969 -0.17808,-0.42007 v -0.11861 c 0,-0.18039 0.0593,-0.32047 0.17808,-0.42008 0.1186,-0.0996 0.2491,-0.14949 0.3915,-0.14949 h 0.20648 c 0.1092,0 0.19691,0.0319 0.26348,0.096 0.0664,0.0641 0.0996,0.15081 0.0996,0.26001 z m 0.76533,-0.99444 c -0.0593,-0.13744 -0.14009,-0.25737 -0.24201,-0.35945 -0.10209,-0.10193 -0.22185,-0.1827 -0.35961,-0.24217 -0.13761,-0.0593 -0.28727,-0.0889 -0.44849,-0.0889 h -0.35599 c -0.10919,0 -0.20996,0.0261 -0.30263,0.0783 -0.0925,0.0524 -0.15792,0.0973 -0.19575,0.13512 v -0.92143 l -0.0712,-0.0714 h -0.71196 l -0.0712,0.0714 v 3.46089 l 0.0712,0.0712 h 0.14239 l 0.29189,-0.30609 c 0.11398,0.095 0.23853,0.16965 0.37382,0.22416 0.13529,0.0547 0.29305,0.0819 0.47344,0.0819 h 0.35598 c 0.16123,0 0.31089,-0.0296 0.44849,-0.089 0.13777,-0.0593 0.25753,-0.13992 0.35962,-0.242 0.10192,-0.10209 0.1827,-0.22169 0.242,-0.35962 0.0593,-0.1376 0.089,-0.2871 0.089,-0.44849 v -0.54579 c 0,-0.16122 -0.0297,-0.31089 -0.089,-0.44865"
         style="fill:#59595c;fill-opacity:1;fill-rule:nonzero;stroke:none;stroke-width:0.16518977"
         id="path8447-4"
         inkscape:connector-curvature="0" />
      <path
         d="m 217.48616,154.67836 -1.13089,1.71599 0.5671,0.86064 h -1.56121 l 0.66439,0.98651 h -1.5503 l 0.66439,0.98668 h -1.57888 l 0.66439,-0.98668 h -1.55031 l 0.6644,-0.98651 h -1.56121 l 0.56726,-0.86064 -0.56726,-0.86064 h 1.56121 l -0.6644,-0.98651 h 1.55031 l -0.66439,-0.98651 h 1.57888 l -0.66439,0.98651 h 1.03128 l 1.24041,-1.84187 h -4.79348 l 0.66439,0.98652 h -1.5503 l 0.66439,0.98651 h -1.54205 l 1.13089,1.71599 -1.13072,1.71599 h 1.54188 l -0.66439,0.98652 h 1.5503 l -0.66439,0.98667 h 4.79348 l -0.6644,-0.98667 h 1.55031 l -0.66439,-0.98652 h 1.54204 l -1.13089,-1.71599 1.13089,-1.71599 z"
         style="fill:#2bbbb1;fill-opacity:1;fill-rule:nonzero;stroke:none;stroke-width:0.16518977"
         id="path8451-4"
         inkscape:connector-curvature="0" />
    </g>
  </g>
</svg>
