<?xml version="1.0" encoding="UTF-8" standalone="no"?>
<!-- Created with Inkscape (http://www.inkscape.org/) -->

<svg
   xmlns:dc="http://purl.org/dc/elements/1.1/"
   xmlns:cc="http://creativecommons.org/ns#"
   xmlns:rdf="http://www.w3.org/1999/02/22-rdf-syntax-ns#"
   xmlns:svg="http://www.w3.org/2000/svg"
   xmlns="http://www.w3.org/2000/svg"
   xmlns:sodipodi="http://sodipodi.sourceforge.net/DTD/sodipodi-0.dtd"
   xmlns:inkscape="http://www.inkscape.org/namespaces/inkscape"
   width="1774.4169"
   height="1019.0733"
   viewBox="0 0 469.48117 269.6298"
   version="1.1"
   id="svg8"
   inkscape:version="0.92.2 (5c3e80d, 2017-08-06)"
   sodipodi:docname="vertical_grey.svg"
   inkscape:export-filename="/home/anxhelo/Desktop/Design/Open Labs Branding/vertical_color.png"
   inkscape:export-xdpi="96"
   inkscape:export-ydpi="96">
  <defs
     id="defs2" />
  <sodipodi:namedview
     id="base"
     pagecolor="#ffffff"
     bordercolor="#666666"
     borderopacity="1.0"
     inkscape:pageopacity="0.0"
     inkscape:pageshadow="2"
     inkscape:zoom="0.2528125"
     inkscape:cx="749.14098"
     inkscape:cy="432.6548"
     inkscape:document-units="mm"
     inkscape:current-layer="g1160"
     inkscape:document-rotation="0"
     showgrid="false"
     borderlayer="true"
     inkscape:showpageshadow="false"
     units="px"
     inkscape:pagecheckerboard="false"
     showguides="true"
     inkscape:window-width="1366"
     inkscape:window-height="715"
     inkscape:window-x="0"
     inkscape:window-y="0"
     inkscape:window-maximized="1"
     fit-margin-top="0"
     fit-margin-left="0"
     fit-margin-right="0"
     fit-margin-bottom="0">
    <inkscape:grid
       type="xygrid"
       id="grid10"
       originx="-108.97902"
       originy="86.51236" />
  </sodipodi:namedview>
  <metadata
     id="metadata5">
    <rdf:RDF>
      <cc:Work
         rdf:about="">
        <dc:format>image/svg+xml</dc:format>
        <dc:type
           rdf:resource="http://purl.org/dc/dcmitype/StillImage" />
        <dc:title></dc:title>
      </cc:Work>
    </rdf:RDF>
  </metadata>
  <g
     inkscape:label="Layer 1"
     inkscape:groupmode="layer"
     id="layer1"
     transform="translate(-108.97894,-113.88256)">
    <g
       id="g847"
       transform="matrix(6.5901191,0,0,6.5901191,-1228.2686,-846.98072)">
      <g
         id="g975"
         transform="matrix(10.484904,0,0,10.484904,-1763.1714,-1462.6078)">
        <g
           id="g1160"
           transform="matrix(16.517274,0,0,16.517274,-2979.0825,-2421.3854)">
          <path
             d="m 191.75526,156.08914 c 0,-0.002 -3.4e-4,-0.003 -0.001,-0.005 -6.8e-4,-0.002 -0.002,-0.003 -0.003,-0.004 -0.001,-0.001 -0.003,-0.002 -0.004,-0.003 -0.002,-7.9e-4 -0.003,-0.001 -0.005,-0.001 -0.002,0 -0.004,4e-4 -0.005,0.001 -0.002,7.9e-4 -0.003,0.002 -0.004,0.003 -0.001,0.001 -0.002,0.003 -0.003,0.004 -6.8e-4,0.002 -10e-4,0.003 -10e-4,0.005 v 0.005 c 0,0.002 3.4e-4,0.003 10e-4,0.005 6.8e-4,0.002 0.002,0.003 0.003,0.004 0.001,0.001 0.003,0.002 0.004,0.003 0.002,7.9e-4 0.003,10e-4 0.005,10e-4 0.002,0 0.004,-3.9e-4 0.005,-10e-4 0.002,-7.9e-4 0.003,-0.002 0.004,-0.003 0.001,-0.001 0.002,-0.003 0.003,-0.004 6.8e-4,-0.002 0.001,-0.003 0.001,-0.005 z m -0.0135,-0.026 c 0.004,0 0.007,7.1e-4 0.0104,0.002 0.003,10e-4 0.006,0.003 0.009,0.006 0.002,0.002 0.004,0.005 0.006,0.009 0.001,0.003 0.002,0.007 0.002,0.0104 v 0.002 c 0,-0.003 -7.1e-4,0.007 -0.002,0.0105 -10e-4,0.003 -0.003,0.006 -0.006,0.009 -0.002,0.002 -0.005,0.004 -0.009,0.006 -0.003,0.001 -0.007,0.002 -0.0104,0.002 -0.004,0 -0.007,-7.2e-4 -0.0104,-0.002 -0.003,-0.001 -0.006,-0.003 -0.009,-0.006 -0.002,-0.002 -0.004,-0.005 -0.006,-0.009 -0.001,-0.003 -0.002,-0.007 -0.002,-0.0105 v -0.002 c 0,-0.004 7.2e-4,-0.007 0.002,-0.0104 0.001,-0.003 0.003,-0.006 0.006,-0.009 0.002,-0.002 0.005,-0.004 0.009,-0.006 0.003,-0.001 0.007,-0.002 0.0104,-0.002"
             style="fill:#59595c;fill-opacity:1;fill-rule:nonzero;stroke:none;stroke-width:0.00262055"
             id="path8491-3"
             inkscape:connector-curvature="0" />
          <path
             d="m 191.8416,156.07797 c -0.002,0 -0.003,5e-4 -0.004,0.002 -0.001,0.001 -0.002,0.002 -0.002,0.004 v 0.003 h 0.0181 v -0.003 c 0,-0.002 -5.1e-4,-0.003 -0.002,-0.004 -0.001,-0.001 -0.002,-0.002 -0.004,-0.002 z m -0.001,0.0418 c -0.003,0 -0.005,-4.7e-4 -0.007,-10e-4 -0.002,-9.4e-4 -0.004,-0.002 -0.006,-0.004 -0.002,-0.002 -0.003,-0.004 -0.004,-0.006 -9.4e-4,-0.002 -0.001,-0.005 -0.001,-0.007 v -0.0181 c 0,-0.003 4.7e-4,-0.005 0.001,-0.007 9.4e-4,-0.002 0.002,-0.004 0.004,-0.006 0.002,-0.002 0.004,-0.003 0.006,-0.004 0.002,-9.4e-4 0.005,-10e-4 0.007,-10e-4 h 0.009 c 0.003,0 0.005,4.7e-4 0.007,10e-4 0.002,9.5e-4 0.004,0.002 0.006,0.004 0.002,0.002 0.003,0.004 0.004,0.006 9.4e-4,0.002 0.001,0.005 0.001,0.007 v 0.0147 h -0.0316 v 0.003 c 0,0.002 5.1e-4,0.003 0.002,0.004 0.001,0.001 0.002,0.002 0.004,0.002 h 0.009 c 0.001,0 0.003,-1.8e-4 0.004,-5.6e-4 0.001,-3.8e-4 0.002,-8.1e-4 0.003,-0.001 6.8e-4,-4.9e-4 0.001,-9.8e-4 0.002,-0.001 4.5e-4,-4.9e-4 8.3e-4,-8.8e-4 10e-4,-10e-4 h 0.002 l 0.006,0.006 v 0.002 l -0.005,0.005 c -0.001,0.001 -0.003,0.002 -0.005,0.003 -0.002,9.5e-4 -0.005,0.001 -0.007,0.001 z"
             style="fill:#59595c;fill-opacity:1;fill-rule:nonzero;stroke:none;stroke-width:0.00262055"
             id="path8495-8"
             inkscape:connector-curvature="0" />
          <path
             d="m 191.90171,156.06554 c 0.003,0 0.005,4.7e-4 0.007,0.001 0.002,9.5e-4 0.004,0.002 0.006,0.004 0.002,0.002 0.003,0.004 0.004,0.006 9.4e-4,0.002 0.001,0.005 0.001,0.007 v 0.035 l -0.001,0.001 h -0.0113 l -0.001,-0.001 v -0.035 c 0,-0.002 -5.3e-4,-0.003 -0.002,-0.004 -0.001,-0.001 -0.002,-0.002 -0.004,-0.002 h -0.004 c -0.002,0 -0.004,7.9e-4 -0.006,0.002 -0.002,0.002 -0.003,0.004 -0.003,0.007 v 0.0316 l -10e-4,10e-4 h -0.0113 l -0.001,-10e-4 v -0.052 l 0.001,-10e-4 h 0.002 l 0.005,0.005 c 0.002,-0.002 0.004,-0.003 0.006,-0.004 0.002,-8.6e-4 0.005,-10e-4 0.008,-10e-4 z"
             style="fill:#59595c;fill-opacity:1;fill-rule:nonzero;stroke:none;stroke-width:0.00262055"
             id="path8499-2"
             inkscape:connector-curvature="0" />
          <path
             d="m 192.00106,156.0983 c -5.3e-4,0 -0.001,7e-5 -0.002,2.2e-4 -6.4e-4,1.5e-4 -10e-4,4e-4 -0.002,7.4e-4 -5.6e-4,3.4e-4 -0.001,8.1e-4 -0.001,0.001 -3.8e-4,6e-4 -5.7e-4,0.001 -5.7e-4,0.002 0,8.2e-4 1.9e-4,0.002 5.7e-4,0.002 3.7e-4,6e-4 8.5e-4,10e-4 0.001,10e-4 5.6e-4,3.4e-4 0.001,5.9e-4 0.002,7.3e-4 6.4e-4,1.6e-4 0.001,2.3e-4 0.002,2.3e-4 h 0.006 c 0.002,0 0.003,-3.5e-4 0.004,-0.001 0.001,-7.1e-4 0.002,-0.002 0.002,-0.003 5.7e-4,-10e-4 9.4e-4,-0.002 0.001,-0.003 1.9e-4,-9.8e-4 2.8e-4,-0.002 2.8e-4,-0.002 z m 0.009,-0.0327 c 0.003,0 0.005,4.6e-4 0.007,0.001 0.002,9.5e-4 0.004,0.002 0.006,0.004 0.002,0.002 0.003,0.004 0.004,0.006 9.5e-4,0.002 0.001,0.005 0.001,0.007 v 0.035 l -0.001,0.001 h -0.002 l -0.005,-0.005 c -0.002,0.002 -0.004,0.003 -0.006,0.003 -0.002,7.5e-4 -0.005,10e-4 -0.007,10e-4 h -0.007 c -0.002,0 -0.004,-4.2e-4 -0.006,-10e-4 -0.002,-8.2e-4 -0.004,-0.002 -0.005,-0.003 -0.002,-0.001 -0.003,-0.003 -0.004,-0.005 -9e-4,-0.002 -0.001,-0.004 -0.001,-0.007 0,-0.003 4.5e-4,-0.005 0.001,-0.007 9.1e-4,-0.002 0.002,-0.004 0.004,-0.005 0.002,-0.001 0.003,-0.002 0.005,-0.003 0.002,-6.8e-4 0.004,-0.001 0.006,-0.001 h 0.0147 v -0.003 c 0,-0.002 -5e-4,-0.003 -0.002,-0.004 -10e-4,-0.001 -0.002,-0.002 -0.004,-0.002 h -0.007 c -10e-4,0 -0.003,1.9e-4 -0.004,5.6e-4 -0.001,3.8e-4 -0.002,8.1e-4 -0.003,0.001 -6.8e-4,4.9e-4 -0.001,9.8e-4 -0.002,0.001 -4.5e-4,4.9e-4 -8.2e-4,8.8e-4 -0.001,0.001 h -0.002 l -0.006,-0.006 v -0.002 l 0.005,-0.005 c 10e-4,-0.001 0.003,-0.002 0.005,-0.003 0.002,-9.4e-4 0.005,-0.001 0.007,-0.001 z"
             style="fill:#59595c;fill-opacity:1;fill-rule:nonzero;stroke:none;stroke-width:0.00262055"
             id="path8503-0"
             inkscape:connector-curvature="0" />
          <path
             d="m 192.10872,156.06554 c 0.002,0 0.005,4.7e-4 0.007,0.001 0.002,9.5e-4 0.004,0.002 0.005,0.003 l 0.005,0.005 v 0.002 l -0.007,0.006 h -0.002 c -3e-4,-3e-4 -6.6e-4,-6.9e-4 -10e-4,-0.001 -4.1e-4,-4.9e-4 -9.4e-4,-9.8e-4 -0.002,-10e-4 -6.4e-4,-4.9e-4 -0.001,-9.2e-4 -0.002,-0.001 -8.7e-4,-3.8e-4 -0.002,-5.6e-4 -0.003,-5.6e-4 h -0.008 c -0.001,0 -0.002,4.1e-4 -0.003,0.001 -5.6e-4,8.3e-4 -8.5e-4,0.002 -8.5e-4,0.002 0,0.002 7e-4,0.003 0.002,0.003 0.001,6.4e-4 0.003,0.001 0.005,0.002 0.002,4.5e-4 0.004,9.1e-4 0.007,10e-4 0.002,4.5e-4 0.005,0.001 0.007,0.002 0.002,0.001 0.004,0.003 0.005,0.005 0.001,0.002 0.002,0.005 0.002,0.009 0,0.005 -10e-4,0.008 -0.004,0.0113 -0.003,0.003 -0.007,0.005 -0.0127,0.005 h -0.009 c -0.002,0 -0.005,-4.7e-4 -0.007,-0.001 -0.002,-9.4e-4 -0.004,-0.002 -0.005,-0.003 l -0.005,-0.005 v -0.002 l 0.007,-0.006 h 0.002 c 3e-4,3e-4 6.5e-4,6.9e-4 0.001,10e-4 4.1e-4,4.9e-4 9.4e-4,9.8e-4 0.002,0.001 6.4e-4,4.9e-4 0.001,9.2e-4 0.002,0.001 8.6e-4,3.8e-4 0.002,5.6e-4 0.003,5.6e-4 h 0.009 c 0.001,0 0.002,-4.1e-4 0.003,-0.001 5.7e-4,-8.3e-4 8.5e-4,-0.002 8.5e-4,-0.002 0,-0.001 -7e-4,-0.003 -0.002,-0.003 -0.001,-6.4e-4 -0.003,-0.001 -0.005,-0.002 -0.002,-4.5e-4 -0.004,-9.1e-4 -0.007,-0.001 -0.002,-4.5e-4 -0.005,-0.001 -0.007,-0.002 -0.002,-0.001 -0.004,-0.003 -0.005,-0.005 -0.001,-0.002 -0.002,-0.005 -0.002,-0.009 0,-0.005 10e-4,-0.008 0.004,-0.0113 0.003,-0.003 0.007,-0.005 0.0127,-0.005 z"
             style="fill:#59595c;fill-opacity:1;fill-rule:nonzero;stroke:none;stroke-width:0.00262055"
             id="path8507-1"
             inkscape:connector-curvature="0" />
          <path
             d="m 191.96555,156.11834 c -0.002,-9.4e-4 -0.004,-0.002 -0.006,-0.004 -0.002,-0.002 -0.003,-0.004 -0.004,-0.006 -9.4e-4,-0.002 -10e-4,-0.005 -10e-4,-0.007 v -0.0357 l 0.007,-0.003 h 0.006 l 0.001,0.001 v 0.0379 c 0,0.002 5.1e-4,0.003 0.002,0.004 0.001,0.001 0.002,0.002 0.004,0.002 h 0.005 l 0.001,0.001 v 0.0102 l -0.001,0.001 h -0.006 c -0.003,0 -0.005,-4.7e-4 -0.007,-0.001"
             style="fill:#59595c;fill-opacity:1;fill-rule:nonzero;stroke:none;stroke-width:0.00262055"
             id="path8511-50"
             inkscape:connector-curvature="0" />
          <path
             d="m 191.80433,156.09375 c 0,0.002 -5.1e-4,0.003 -0.002,0.004 -0.001,0.001 -0.002,0.002 -0.004,0.002 h -0.003 c -0.002,0 -0.004,-7.9e-4 -0.006,-0.002 -0.002,-0.002 -0.003,-0.004 -0.003,-0.007 v -0.003 c 0,-0.003 9.4e-4,-0.005 0.003,-0.007 0.002,-0.002 0.004,-0.002 0.006,-0.002 h 0.003 c 0.002,0 0.003,5.1e-4 0.004,0.002 10e-4,0.001 0.002,0.002 0.002,0.004 z m 0.0121,-0.0172 c -9.4e-4,-0.002 -0.002,-0.004 -0.004,-0.006 -0.002,-0.002 -0.004,-0.003 -0.006,-0.004 -0.002,-9.4e-4 -0.005,-0.001 -0.007,-0.001 h -0.006 c -0.003,0 -0.005,4.3e-4 -0.008,0.001 -0.002,8.7e-4 -0.004,0.002 -0.006,0.004 l -0.005,-0.005 h -0.002 l -0.001,0.001 v 0.0525 l 0.001,0.001 h 0.0113 l 0.001,-0.001 v -0.0108 c 6e-4,6e-4 0.002,0.001 0.003,0.002 10e-4,8.2e-4 0.003,0.001 0.005,0.001 h 0.006 c 0.003,0 0.005,-4.7e-4 0.007,-0.001 0.002,-9.4e-4 0.004,-0.002 0.006,-0.004 0.002,-0.002 0.003,-0.004 0.004,-0.006 9.4e-4,-0.002 0.001,-0.005 0.001,-0.007 v -0.0101 c 0,-0.003 -4.7e-4,-0.005 -0.001,-0.007"
             style="fill:#59595c;fill-opacity:1;fill-rule:nonzero;stroke:none;stroke-width:0.00262055"
             id="path8515-46"
             inkscape:connector-curvature="0" />
          <path
             d="m 192.06693,156.10169 c 0,0.002 -5.3e-4,0.003 -0.002,0.004 -0.001,10e-4 -0.002,0.002 -0.004,0.002 h -0.003 c -0.002,0 -0.004,-7.9e-4 -0.006,-0.002 -0.002,-0.002 -0.003,-0.004 -0.003,-0.007 v -0.002 c 0,-0.003 9.4e-4,-0.005 0.003,-0.007 0.002,-0.002 0.004,-0.002 0.006,-0.002 h 0.003 c 0.002,0 0.003,5.1e-4 0.004,0.002 0.001,0.001 0.002,0.002 0.002,0.004 z m 0.0121,-0.0158 c -9.4e-4,-0.002 -0.002,-0.004 -0.004,-0.006 -0.002,-0.002 -0.004,-0.003 -0.006,-0.004 -0.002,-9.5e-4 -0.005,-10e-4 -0.007,-10e-4 h -0.006 c -0.002,0 -0.003,4.1e-4 -0.005,10e-4 -0.001,8.3e-4 -0.002,0.002 -0.003,0.002 v -0.0146 l -0.001,-0.001 h -0.0113 l -0.001,0.001 v 0.0549 l 0.001,0.001 h 0.002 l 0.005,-0.005 c 0.002,0.002 0.004,0.003 0.006,0.004 0.002,8.6e-4 0.005,0.001 0.008,0.001 h 0.006 c 0.003,0 0.005,-4.7e-4 0.007,-0.001 0.002,-9.4e-4 0.004,-0.002 0.006,-0.004 0.002,-0.002 0.003,-0.004 0.004,-0.006 9.4e-4,-0.002 10e-4,-0.005 10e-4,-0.007 v -0.009 c 0,-0.003 -4.7e-4,-0.005 -10e-4,-0.007"
             style="fill:#59595c;fill-opacity:1;fill-rule:nonzero;stroke:none;stroke-width:0.00262055"
             id="path8519-5"
             inkscape:connector-curvature="0" />
          <path
             d="m 191.9843,155.92496 -0.0232,0.0351 0.0116,0.0176 h -0.0319 l 0.0136,0.0202 h -0.0317 l 0.0136,0.0202 h -0.0323 l 0.0136,-0.0202 h -0.0317 l 0.0136,-0.0202 h -0.0319 l 0.0116,-0.0176 -0.0116,-0.0176 h 0.0319 l -0.0136,-0.0202 h 0.0317 l -0.0136,-0.0202 h 0.0323 l -0.0136,0.0202 h 0.0211 l 0.0254,-0.0377 h -0.0981 l 0.0136,0.0202 h -0.0317 l 0.0136,0.0202 h -0.0316 l 0.0231,0.0351 -0.0231,0.0351 h 0.0316 l -0.0136,0.0202 h 0.0317 l -0.0136,0.0202 h 0.0981 l -0.0136,-0.0202 h 0.0317 l -0.0136,-0.0202 h 0.0316 l -0.0231,-0.0351 0.0231,-0.0351 z"
             style="fill:#59595c;fill-opacity:1;fill-rule:nonzero;stroke:none;stroke-width:0.00262055"
             id="path8523-6"
             inkscape:connector-curvature="0" />
        </g>
      </g>
    </g>
  </g>
</svg>
